<svg width="24" height="28" viewBox="0 0 24 28" fill="none" xmlns="http://www.w3.org/2000/svg">
<path d="M17.5 16.3334C17.5 16.6428 17.3771 16.9395 17.1583 17.1583C16.9395 17.3771 16.6428 17.5 16.3333 17.5H7C6.69058 17.5 6.39383 17.3771 6.17504 17.1583C5.95625 16.9395 5.83333 16.6428 5.83333 16.3334C5.83333 16.0239 5.95625 15.7272 6.17504 15.5084C6.39383 15.2896 6.69058 15.1667 7 15.1667H16.3333C16.6428 15.1667 16.9395 15.2896 17.1583 15.5084C17.3771 15.7272 17.5 16.0239 17.5 16.3334ZM12.8333 19.8334H7C6.69058 19.8334 6.39383 19.9563 6.17504 20.1751C5.95625 20.3939 5.83333 20.6906 5.83333 21C5.83333 21.3094 5.95625 21.6062 6.17504 21.825C6.39383 22.0438 6.69058 22.1667 7 22.1667H12.8333C13.1428 22.1667 13.4395 22.0438 13.6583 21.825C13.8771 21.6062 14 21.3094 14 21C14 20.6906 13.8771 20.3939 13.6583 20.1751C13.4395 19.9563 13.1428 19.8334 12.8333 19.8334ZM23.3333 12.2325V22.1667C23.3315 23.7132 22.7163 25.1959 21.6227 26.2894C20.5292 27.383 19.0465 27.9982 17.5 28H5.83333C4.28681 27.9982 2.80415 27.383 1.71059 26.2894C0.617029 25.1959 0.0018525 23.7132 0 22.1667V5.83336C0.0018525 4.28683 0.617029 2.80418 1.71059 1.71062C2.80415 0.617056 4.28681 0.00187939 5.83333 2.68901e-05H11.1008C12.1737 -0.00273452 13.2365 0.207213 14.2278 0.617729C15.219 1.02825 16.119 1.63119 16.8758 2.39169L20.9405 6.45869C21.7014 7.21497 22.3048 8.11473 22.7155 9.10583C23.1262 10.0969 23.3362 11.1597 23.3333 12.2325ZM15.2262 4.04136C14.859 3.68571 14.4468 3.37977 14 3.13136V8.16669C14 8.47611 14.1229 8.77286 14.3417 8.99165C14.5605 9.21044 14.8572 9.33336 15.1667 9.33336H20.202C19.9534 8.88675 19.6471 8.47486 19.2908 8.10836L15.2262 4.04136ZM21 12.2325C21 12.04 20.9627 11.8557 20.9452 11.6667H15.1667C14.2384 11.6667 13.3482 11.2979 12.6918 10.6416C12.0354 9.98519 11.6667 9.09495 11.6667 8.16669V2.38819C11.4777 2.37069 11.2922 2.33336 11.1008 2.33336H5.83333C4.90508 2.33336 4.01484 2.70211 3.35846 3.35849C2.70208 4.01486 2.33333 4.9051 2.33333 5.83336V22.1667C2.33333 23.0949 2.70208 23.9852 3.35846 24.6416C4.01484 25.2979 4.90508 25.6667 5.83333 25.6667H17.5C18.4283 25.6667 19.3185 25.2979 19.9749 24.6416C20.6313 23.9852 21 23.0949 21 22.1667V12.2325Z" fill="white"/>
</svg>
