<svg width="28" height="22" viewBox="0 0 28 22" fill="none" xmlns="http://www.w3.org/2000/svg">
<path d="M2.00049 12.8267L22.0005 12.8267L15.4205 18.8628C15.233 19.0333 15.0842 19.2362 14.9827 19.4598C14.8812 19.6834 14.8289 19.9232 14.8289 20.1654C14.8289 20.4076 14.8812 20.6474 14.9827 20.8709C15.0842 21.0945 15.233 21.2974 15.4205 21.468C15.7952 21.8097 16.3021 22.0015 16.8305 22.0015C17.3589 22.0015 17.8658 21.8097 18.2405 21.468L26.8205 13.5789C27.5717 12.894 27.996 11.9637 28.0005 10.9921C27.9908 10.0269 27.5668 9.10403 26.8205 8.42356L18.2405 0.534543C18.054 0.364686 17.8329 0.230188 17.5897 0.138723C17.3466 0.0472596 17.0862 0.00062108 16.8234 0.00147367C16.5606 0.00232434 16.3006 0.0506508 16.0582 0.143689C15.8157 0.236728 15.5957 0.372657 15.4105 0.543718C15.2253 0.714778 15.0787 0.917621 14.979 1.14066C14.8793 1.3637 14.8284 1.60257 14.8294 1.84364C14.8303 2.0847 14.883 2.32324 14.9844 2.54562C15.0858 2.76801 15.234 2.9699 15.4205 3.13975L22.0005 9.15742L2.00049 9.15742C1.47005 9.15742 0.961344 9.35072 0.586272 9.69478C0.211199 10.0388 0.000486851 10.5055 0.000486851 10.9921C0.000486851 11.4787 0.211199 11.9453 0.586272 12.2894C0.961344 12.6334 1.47005 12.8267 2.00049 12.8267Z" fill="white"/>
</svg>
