<svg width="40" height="40" viewBox="0 0 40 40" fill="none" xmlns="http://www.w3.org/2000/svg">
<ellipse cx="19.9604" cy="20" rx="19.9604" ry="20" fill="white"/>
<path d="M17.7549 0.138986C8.53626 1.143 1.12123 8.57272 0.119205 17.6089C-0.882825 27.0466 4.52814 35.4803 12.7448 38.6932C13.346 38.894 13.9472 38.4924 13.9472 37.6892V34.4763C13.9472 34.4763 13.1456 34.6771 12.1436 34.6771C9.33788 34.6771 8.13545 32.2675 7.93504 30.8619C7.73463 30.0587 7.33382 29.4563 6.7326 28.8538C6.13139 28.653 5.93098 28.653 5.93098 28.4522C5.93098 28.0506 6.5322 28.0506 6.7326 28.0506C7.93504 28.0506 8.93707 29.4563 9.33788 30.0587C10.3399 31.6651 11.5423 32.0667 12.1436 32.0667C12.9452 32.0667 13.5464 31.8659 13.9472 31.6651C14.1476 30.2595 14.7488 28.8538 15.9513 28.0506C11.3419 27.0466 7.93504 24.4362 7.93504 20.0185C7.93504 17.8097 8.93707 15.6008 10.3399 13.9944C10.1395 13.5928 9.9391 12.5888 9.9391 11.1832C9.9391 10.38 9.9391 9.17513 10.5403 7.97031C10.5403 7.97031 13.346 7.97031 16.1517 10.5808C17.1537 10.1791 18.5566 9.97834 19.9594 9.97834C21.3622 9.97834 22.7651 10.1791 23.9675 10.5808C26.5728 7.97031 29.5789 7.97031 29.5789 7.97031C29.9797 9.17513 29.9797 10.38 29.9797 11.1832C29.9797 12.7896 29.7793 13.5928 29.5789 13.9944C30.9817 15.6008 31.9838 17.6089 31.9838 20.0185C31.9838 24.4362 28.5769 27.0466 23.9675 28.0506C25.17 29.0546 25.9716 30.8619 25.9716 32.6691V37.89C25.9716 38.4924 26.5728 39.0948 27.3744 38.894C34.7894 35.882 40 28.653 40 20.2193C40 8.17112 29.7793 -1.26664 17.7549 0.138986Z" fill="black"/>
</svg>
