<svg width="28" height="28" viewBox="0 0 28 28" fill="none" xmlns="http://www.w3.org/2000/svg">
<path d="M24.6667 0H3.33333C1.49333 0 0 1.49333 0 3.33333V24.6667C0 26.5067 1.49333 28 3.33333 28H24.6667C26.5067 28 28 26.5067 28 24.6667V3.33333C28 1.49333 26.5067 0 24.6667 0ZM8.66667 10.6667V23.3333H4.66667V10.6667H8.66667ZM4.66667 6.98C4.66667 6.04667 5.46667 5.33333 6.66667 5.33333C7.86667 5.33333 8.62 6.04667 8.66667 6.98C8.66667 7.91333 7.92 8.66667 6.66667 8.66667C5.46667 8.66667 4.66667 7.91333 4.66667 6.98ZM23.3333 23.3333H19.3333C19.3333 23.3333 19.3333 17.16 19.3333 16.6667C19.3333 15.3333 18.6667 14 17 13.9733H16.9467C15.3333 13.9733 14.6667 15.3467 14.6667 16.6667C14.6667 17.2733 14.6667 23.3333 14.6667 23.3333H10.6667V10.6667H14.6667V12.3733C14.6667 12.3733 15.9533 10.6667 18.54 10.6667C21.1867 10.6667 23.3333 12.4867 23.3333 16.1733V23.3333Z" fill="white"/>
</svg>
